<svg xmlns="http://www.w3.org/2000/svg" width="960" height="1368" viewBox="0 0 960 1368">
<defs>
  <pattern id="pat_silt" patternUnits="userSpaceOnUse" width="30" height="10"><line x1="0"  y1="2.5" x2="12" y2="2.5" stroke="rgba(0,0,0,0.52)" stroke-width="0.9" stroke-linecap="round"/><line x1="15" y1="2.5" x2="26" y2="2.5" stroke="rgba(0,0,0,0.52)" stroke-width="0.9" stroke-linecap="round"/><line x1="0"  y1="6.0" x2="30" y2="6.0" stroke="rgba(205,95,15,0.72)" stroke-width="1.0"/><line x1="2"  y1="9.0" x2="11" y2="9.0" stroke="rgba(0,0,0,0.38)" stroke-width="0.7" stroke-linecap="round"/><line x1="14" y1="9.0" x2="23" y2="9.0" stroke="rgba(0,0,0,0.38)" stroke-width="0.7" stroke-linecap="round"/></pattern>
  <pattern id="pat_clay" patternUnits="userSpaceOnUse" width="18" height="18"><line x1="0" y1="0" x2="18" y2="18" stroke="rgba(0,0,0,0.60)" stroke-width="1.1"/><line x1="18" y1="0" x2="0" y2="18" stroke="rgba(0,0,0,0.60)" stroke-width="1.1"/></pattern>
  <pattern id="pat_fill" patternUnits="userSpaceOnUse" width="11" height="11"><line x1="0"   y1="11" x2="11"  y2="0" stroke="rgba(0,0,0,0.65)" stroke-width="1.3"/><line x1="-5.5" y1="11" x2="5.5" y2="0" stroke="rgba(0,0,0,0.65)" stroke-width="1.3"/><line x1="5.5" y1="11" x2="16.5" y2="0" stroke="rgba(0,0,0,0.65)" stroke-width="1.3"/></pattern>
  <clipPath id="cpl0"><path d="M75.00,130.00 C77.62,130.00 82.25,130.00 87.50,130.00 C92.75,130.00 94.75,130.00 100.00,130.00 C105.25,130.00 107.25,130.00 112.50,130.00 C117.75,130.00 119.75,130.00 125.00,130.00 C130.25,130.00 132.25,130.00 137.50,130.00 C142.75,130.00 144.75,130.00 150.00,130.00 C155.25,130.00 157.25,130.00 162.50,130.00 C167.75,130.00 169.75,130.00 175.00,130.00 C180.25,130.00 182.25,130.00 187.50,130.00 C192.75,130.00 194.75,130.00 200.00,130.00 C205.25,130.00 207.25,130.00 212.50,130.00 C217.75,130.00 219.75,130.00 225.00,130.00 C230.25,130.00 232.25,130.00 237.50,130.00 C242.75,130.00 244.75,130.00 250.00,130.00 C255.25,130.00 257.25,130.00 262.50,130.00 C267.75,130.00 269.75,130.00 275.00,130.00 C280.25,130.00 282.25,130.00 287.50,130.00 C292.75,130.00 297.38,130.00 300.00,130.00 L300.00,310.00 C297.38,309.54 292.75,308.05 287.50,307.83 C282.25,307.61 280.25,308.46 275.00,308.95 C269.75,309.44 267.75,309.76 262.50,310.15 C257.25,310.54 255.25,310.67 250.00,310.79 C244.75,310.91 242.75,310.82 237.50,310.73 C232.25,310.64 230.25,310.46 225.00,310.36 C219.75,310.26 217.75,310.18 212.50,310.26 C207.25,310.34 205.25,310.47 200.00,310.73 C194.75,310.99 192.75,311.25 187.50,311.50 C182.25,311.75 180.25,311.93 175.00,311.94 C169.75,311.95 167.75,311.88 162.50,311.53 C157.25,311.18 155.25,310.85 150.00,310.27 C144.75,309.69 142.75,309.28 137.50,308.76 C132.25,308.24 130.25,307.98 125.00,307.77 C119.75,307.56 117.75,307.60 112.50,307.77 C107.25,307.94 105.25,308.21 100.00,308.60 C94.75,308.99 92.75,309.35 87.50,309.64 C82.25,309.93 77.62,309.92 75.00,310.00 Z"/></clipPath>
  <clipPath id="cpl1"><path d="M75.00,310.00 C77.62,309.92 82.25,309.93 87.50,309.64 C92.75,309.35 94.75,308.99 100.00,308.60 C105.25,308.21 107.25,307.94 112.50,307.77 C117.75,307.60 119.75,307.56 125.00,307.77 C130.25,307.98 132.25,308.24 137.50,308.76 C142.75,309.28 144.75,309.69 150.00,310.27 C155.25,310.85 157.25,311.18 162.50,311.53 C167.75,311.88 169.75,311.95 175.00,311.94 C180.25,311.93 182.25,311.75 187.50,311.50 C192.75,311.25 194.75,310.99 200.00,310.73 C205.25,310.47 207.25,310.34 212.50,310.26 C217.75,310.18 219.75,310.26 225.00,310.36 C230.25,310.46 232.25,310.64 237.50,310.73 C242.75,310.82 244.75,310.91 250.00,310.79 C255.25,310.67 257.25,310.54 262.50,310.15 C267.75,309.76 269.75,309.44 275.00,308.95 C280.25,308.46 282.25,307.61 287.50,307.83 C292.75,308.05 297.38,309.54 300.00,310.00 L300.00,400.00 C297.38,400.09 292.75,400.30 287.50,400.41 C282.25,400.52 280.25,400.37 275.00,400.51 C269.75,400.65 267.75,400.84 262.50,401.07 C257.25,401.30 255.25,401.51 250.00,401.60 C244.75,401.69 242.75,401.71 237.50,401.48 C232.25,401.25 230.25,401.01 225.00,400.50 C219.75,399.99 217.75,399.59 212.50,399.03 C207.25,398.47 205.25,398.14 200.00,397.83 C194.75,397.52 192.75,397.45 187.50,397.54 C182.25,397.63 180.25,397.85 175.00,398.25 C169.75,398.65 167.75,398.98 162.50,399.43 C157.25,399.88 155.25,400.12 150.00,400.37 C144.75,400.62 142.75,400.64 137.50,400.64 C132.25,400.64 130.25,400.49 125.00,400.38 C119.75,400.27 117.75,400.12 112.50,400.12 C107.25,400.12 105.25,400.15 100.00,400.36 C94.75,400.57 92.75,401.20 87.50,401.12 C82.25,401.04 77.62,400.24 75.00,400.00 Z"/></clipPath>
  <clipPath id="cpl2"><path d="M75.00,400.00 C77.62,400.24 82.25,401.04 87.50,401.12 C92.75,401.20 94.75,400.57 100.00,400.36 C105.25,400.15 107.25,400.12 112.50,400.12 C117.75,400.12 119.75,400.27 125.00,400.38 C130.25,400.49 132.25,400.64 137.50,400.64 C142.75,400.64 144.75,400.62 150.00,400.37 C155.25,400.12 157.25,399.88 162.50,399.43 C167.75,398.98 169.75,398.65 175.00,398.25 C180.25,397.85 182.25,397.63 187.50,397.54 C192.75,397.45 194.75,397.52 200.00,397.83 C205.25,398.14 207.25,398.47 212.50,399.03 C217.75,399.59 219.75,399.99 225.00,400.50 C230.25,401.01 232.25,401.25 237.50,401.48 C242.75,401.71 244.75,401.69 250.00,401.60 C255.25,401.51 257.25,401.30 262.50,401.07 C267.75,400.84 269.75,400.65 275.00,400.51 C280.25,400.37 282.25,400.52 287.50,400.41 C292.75,400.30 297.38,400.09 300.00,400.00 L300.00,880.00 C297.38,879.88 292.75,879.78 287.50,879.41 C282.25,879.04 280.25,878.60 275.00,878.26 C269.75,877.92 267.75,877.78 262.50,877.77 C257.25,877.76 255.25,877.88 250.00,878.19 C244.75,878.50 242.75,878.81 237.50,879.26 C232.25,879.71 230.25,879.99 225.00,880.32 C219.75,880.65 217.75,880.76 212.50,880.85 C207.25,880.94 205.25,880.85 200.00,880.75 C194.75,880.65 192.75,880.48 187.50,880.39 C182.25,880.30 180.25,880.24 175.00,880.30 C169.75,880.36 167.75,880.47 162.50,880.68 C157.25,880.89 155.25,881.11 150.00,881.30 C144.75,881.49 142.75,881.62 137.50,881.59 C132.25,881.56 130.25,881.47 125.00,881.14 C119.75,880.81 117.75,880.51 112.50,880.00 C107.25,879.49 105.25,879.13 100.00,878.70 C94.75,878.27 92.75,877.67 87.50,877.94 C82.25,878.21 77.62,879.57 75.00,880.00 Z"/></clipPath>
  <clipPath id="cpl3"><path d="M75.00,880.00 C77.62,879.57 82.25,878.21 87.50,877.94 C92.75,877.67 94.75,878.27 100.00,878.70 C105.25,879.13 107.25,879.49 112.50,880.00 C117.75,880.51 119.75,880.81 125.00,881.14 C130.25,881.47 132.25,881.56 137.50,881.59 C142.75,881.62 144.75,881.49 150.00,881.30 C155.25,881.11 157.25,880.89 162.50,880.68 C167.75,880.47 169.75,880.36 175.00,880.30 C180.25,880.24 182.25,880.30 187.50,880.39 C192.75,880.48 194.75,880.65 200.00,880.75 C205.25,880.85 207.25,880.94 212.50,880.85 C217.75,880.76 219.75,880.65 225.00,880.32 C230.25,879.99 232.25,879.71 237.50,879.26 C242.75,878.81 244.75,878.50 250.00,878.19 C255.25,877.88 257.25,877.76 262.50,877.77 C267.75,877.78 269.75,877.92 275.00,878.26 C280.25,878.60 282.25,879.04 287.50,879.41 C292.75,879.78 297.38,879.88 300.00,880.00 L300.00,1330.00 C297.38,1330.00 292.75,1330.00 287.50,1330.00 C282.25,1330.00 280.25,1330.00 275.00,1330.00 C269.75,1330.00 267.75,1330.00 262.50,1330.00 C257.25,1330.00 255.25,1330.00 250.00,1330.00 C244.75,1330.00 242.75,1330.00 237.50,1330.00 C232.25,1330.00 230.25,1330.00 225.00,1330.00 C219.75,1330.00 217.75,1330.00 212.50,1330.00 C207.25,1330.00 205.25,1330.00 200.00,1330.00 C194.75,1330.00 192.75,1330.00 187.50,1330.00 C182.25,1330.00 180.25,1330.00 175.00,1330.00 C169.75,1330.00 167.75,1330.00 162.50,1330.00 C157.25,1330.00 155.25,1330.00 150.00,1330.00 C144.75,1330.00 142.75,1330.00 137.50,1330.00 C132.25,1330.00 130.25,1330.00 125.00,1330.00 C119.75,1330.00 117.75,1330.00 112.50,1330.00 C107.25,1330.00 105.25,1330.00 100.00,1330.00 C94.75,1330.00 92.75,1330.00 87.50,1330.00 C82.25,1330.00 77.62,1330.00 75.00,1330.00 Z"/></clipPath>
  <linearGradient id="gL0" x1="0" y1="130.0" x2="0" y2="310.0" gradientUnits="userSpaceOnUse"><stop offset="0%"   stop-color="#AB9A93"/><stop offset="25%"  stop-color="#8A7369"/><stop offset="100%" stop-color="#6C5A52"/></linearGradient>
  <linearGradient id="gR0" x1="0" y1="130.0" x2="0" y2="310.0" gradientUnits="userSpaceOnUse"><stop offset="0%"   stop-color="#483C37"/><stop offset="100%" stop-color="#302825"/></linearGradient>
  <linearGradient id="gL1" x1="0" y1="310.0" x2="0" y2="400.0" gradientUnits="userSpaceOnUse"><stop offset="0%"   stop-color="#C3A991"/><stop offset="25%"  stop-color="#AB8866"/><stop offset="100%" stop-color="#856A50"/></linearGradient>
  <linearGradient id="gR1" x1="0" y1="310.0" x2="0" y2="400.0" gradientUnits="userSpaceOnUse"><stop offset="0%"   stop-color="#594735"/><stop offset="100%" stop-color="#3C3024"/></linearGradient>
  <linearGradient id="gL2" x1="0" y1="400.0" x2="0" y2="880.0" gradientUnits="userSpaceOnUse"><stop offset="0%"   stop-color="#FAF7EA"/><stop offset="25%"  stop-color="#F8F4E2"/><stop offset="100%" stop-color="#C1BEB0"/></linearGradient>
  <linearGradient id="gR2" x1="0" y1="400.0" x2="0" y2="880.0" gradientUnits="userSpaceOnUse"><stop offset="0%"   stop-color="#817F76"/><stop offset="100%" stop-color="#57554F"/></linearGradient>
  <linearGradient id="gL3" x1="0" y1="880.0" x2="0" y2="1330.0" gradientUnits="userSpaceOnUse"><stop offset="0%"   stop-color="#BDBDBD"/><stop offset="25%"  stop-color="#A4A4A4"/><stop offset="100%" stop-color="#808080"/></linearGradient>
  <linearGradient id="gR3" x1="0" y1="880.0" x2="0" y2="1330.0" gradientUnits="userSpaceOnUse"><stop offset="0%"   stop-color="#555555"/><stop offset="100%" stop-color="#393939"/></linearGradient>
  <linearGradient id="gTop" x1="0" y1="0" x2="0" y2="1"><stop offset="0%"   stop-color="#CAC0BC"/><stop offset="100%" stop-color="#8A7369"/></linearGradient>
  <linearGradient id="gEdge" x1="0" y1="0" x2="1" y2="0"><stop offset="0%"   stop-color="#FFF" stop-opacity="0.22"/><stop offset="14%"  stop-color="#FFF" stop-opacity="0.0"/></linearGradient>
  <filter id="gShd" x="-8%" y="-4%" width="128%" height="120%"><feGaussianBlur in="SourceAlpha" stdDeviation="10" result="b"/><feOffset dx="9" dy="14" result="o"/><feFlood flood-color="rgba(0,0,0,0.38)" result="c"/><feComposite in="c" in2="o" operator="in" result="s"/><feBlend in="SourceGraphic" in2="s" mode="normal"/></filter>
  <filter id="gTS"><feGaussianBlur in="SourceAlpha" stdDeviation="1.5" result="b"/><feOffset dx="1" dy="1" result="o"/><feFlood flood-color="rgba(0,0,0,0.70)" result="c"/><feComposite in="c" in2="o" operator="in" result="s"/><feBlend in="SourceGraphic" in2="s" mode="normal"/></filter>
</defs>
<rect width="960" height="1368" fill="#E8E4DC"/>
<rect x="0" y="0" width="960" height="34" fill="#182E48"/>
<rect x="0" y="0" width="4" height="34" fill="#3A7FC1"/>
<text x="480" y="22" text-anchor="middle" font-family="Arial, Helvetica, sans-serif" font-size="13.5" font-weight="bold" letter-spacing="1.5" fill="#FFFFFF" filter="url(#gTS)">PERFIL ESTRATIGRÁFICO 3D DEL SUELO</text>
<rect x="0" y="34" width="960" height="18" fill="#26527A"/>
<text x="12" y="48" font-family="Arial, Helvetica, sans-serif" font-size="7.5" fill="#BDD8F0"><tspan font-weight="bold" fill="#FFFFFF">PROYECTO: </tspan>PROYECTO TEST</text>
<text x="480" y="48" text-anchor="middle" font-family="Arial, Helvetica, sans-serif" font-size="7.5" fill="#BDD8F0"><tspan font-weight="bold" fill="#FFFFFF">SONDEO: </tspan>P-1</text>
<text x="948" y="48" text-anchor="end" font-family="Arial, Helvetica, sans-serif" font-size="7.5" fill="#BDD8F0"><tspan font-weight="bold" fill="#FFFFFF">FECHA: </tspan>24/06/2026</text>
<line x1="0" y1="52" x2="960" y2="52" stroke="#3A7FC1" stroke-width="1.5"/>
<g filter="url(#gShd)">
<polygon points="75,130.0 300,130.0 338,111.0 113,111.0" fill="#C0B490" stroke="rgba(0,0,0,0.55)" stroke-width="1.0"/><polygon points="75,130.0 300,130.0 338,111.0 113,111.0" fill="url(#gTop)" opacity="0.78"/>
<rect x="75" y="130.0" width="225" height="180.0" fill="url(#gL0)" clip-path="url(#cpl0)"/>
<rect x="75" y="130.0" width="225" height="180.0" fill="url(#pat_fill)" clip-path="url(#cpl0)" opacity="0.86"/>
<rect x="75" y="130.0" width="15.8" height="180.0" fill="url(#gEdge)" clip-path="url(#cpl0)"/>
<path d="M75.00,130.00 C77.62,130.00 82.25,130.00 87.50,130.00 C92.75,130.00 94.75,130.00 100.00,130.00 C105.25,130.00 107.25,130.00 112.50,130.00 C117.75,130.00 119.75,130.00 125.00,130.00 C130.25,130.00 132.25,130.00 137.50,130.00 C142.75,130.00 144.75,130.00 150.00,130.00 C155.25,130.00 157.25,130.00 162.50,130.00 C167.75,130.00 169.75,130.00 175.00,130.00 C180.25,130.00 182.25,130.00 187.50,130.00 C192.75,130.00 194.75,130.00 200.00,130.00 C205.25,130.00 207.25,130.00 212.50,130.00 C217.75,130.00 219.75,130.00 225.00,130.00 C230.25,130.00 232.25,130.00 237.50,130.00 C242.75,130.00 244.75,130.00 250.00,130.00 C255.25,130.00 257.25,130.00 262.50,130.00 C267.75,130.00 269.75,130.00 275.00,130.00 C280.25,130.00 282.25,130.00 287.50,130.00 C292.75,130.00 297.38,130.00 300.00,130.00 L300.00,310.00 C297.38,309.54 292.75,308.05 287.50,307.83 C282.25,307.61 280.25,308.46 275.00,308.95 C269.75,309.44 267.75,309.76 262.50,310.15 C257.25,310.54 255.25,310.67 250.00,310.79 C244.75,310.91 242.75,310.82 237.50,310.73 C232.25,310.64 230.25,310.46 225.00,310.36 C219.75,310.26 217.75,310.18 212.50,310.26 C207.25,310.34 205.25,310.47 200.00,310.73 C194.75,310.99 192.75,311.25 187.50,311.50 C182.25,311.75 180.25,311.93 175.00,311.94 C169.75,311.95 167.75,311.88 162.50,311.53 C157.25,311.18 155.25,310.85 150.00,310.27 C144.75,309.69 142.75,309.28 137.50,308.76 C132.25,308.24 130.25,307.98 125.00,307.77 C119.75,307.56 117.75,307.60 112.50,307.77 C107.25,307.94 105.25,308.21 100.00,308.60 C94.75,308.99 92.75,309.35 87.50,309.64 C82.25,309.93 77.62,309.92 75.00,310.00 Z" fill="none" stroke="#423732" stroke-width="0.9"/>
<polygon points="300,130.0 338,111.0 338,291.0 300,310.0" fill="url(#gR0)" stroke="#423732" stroke-width="0.8" stroke-linejoin="round"/>
<polygon points="300,130.0 338,111.0 338,291.0 300,310.0" fill="url(#pat_fill)" stroke="none" opacity="0.44"/>
<line x1="300" y1="130.0" x2="300" y2="310.0" stroke="rgba(255,255,255,0.45)" stroke-width="1.6"/>
<rect x="75" y="310.0" width="225" height="90.0" fill="url(#gL1)" clip-path="url(#cpl1)"/>
<rect x="75" y="310.0" width="225" height="90.0" fill="url(#pat_fill)" clip-path="url(#cpl1)" opacity="0.86"/>
<rect x="75" y="310.0" width="15.8" height="90.0" fill="url(#gEdge)" clip-path="url(#cpl1)"/>
<path d="M75.00,310.00 C77.62,309.92 82.25,309.93 87.50,309.64 C92.75,309.35 94.75,308.99 100.00,308.60 C105.25,308.21 107.25,307.94 112.50,307.77 C117.75,307.60 119.75,307.56 125.00,307.77 C130.25,307.98 132.25,308.24 137.50,308.76 C142.75,309.28 144.75,309.69 150.00,310.27 C155.25,310.85 157.25,311.18 162.50,311.53 C167.75,311.88 169.75,311.95 175.00,311.94 C180.25,311.93 182.25,311.75 187.50,311.50 C192.75,311.25 194.75,310.99 200.00,310.73 C205.25,310.47 207.25,310.34 212.50,310.26 C217.75,310.18 219.75,310.26 225.00,310.36 C230.25,310.46 232.25,310.64 237.50,310.73 C242.75,310.82 244.75,310.91 250.00,310.79 C255.25,310.67 257.25,310.54 262.50,310.15 C267.75,309.76 269.75,309.44 275.00,308.95 C280.25,308.46 282.25,307.61 287.50,307.83 C292.75,308.05 297.38,309.54 300.00,310.00 L300.00,400.00 C297.38,400.09 292.75,400.30 287.50,400.41 C282.25,400.52 280.25,400.37 275.00,400.51 C269.75,400.65 267.75,400.84 262.50,401.07 C257.25,401.30 255.25,401.51 250.00,401.60 C244.75,401.69 242.75,401.71 237.50,401.48 C232.25,401.25 230.25,401.01 225.00,400.50 C219.75,399.99 217.75,399.59 212.50,399.03 C207.25,398.47 205.25,398.14 200.00,397.83 C194.75,397.52 192.75,397.45 187.50,397.54 C182.25,397.63 180.25,397.85 175.00,398.25 C169.75,398.65 167.75,398.98 162.50,399.43 C157.25,399.88 155.25,400.12 150.00,400.37 C144.75,400.62 142.75,400.64 137.50,400.64 C132.25,400.64 130.25,400.49 125.00,400.38 C119.75,400.27 117.75,400.12 112.50,400.12 C107.25,400.12 105.25,400.15 100.00,400.36 C94.75,400.57 92.75,401.20 87.50,401.12 C82.25,401.04 77.62,400.24 75.00,400.00 Z" fill="none" stroke="#524131" stroke-width="0.9"/>
<polygon points="300,310.0 338,291.0 338,381.0 300,400.0" fill="url(#gR1)" stroke="#524131" stroke-width="0.8" stroke-linejoin="round"/>
<polygon points="300,310.0 338,291.0 338,381.0 300,400.0" fill="url(#pat_fill)" stroke="none" opacity="0.44"/>
<line x1="300" y1="310.0" x2="300" y2="400.0" stroke="rgba(255,255,255,0.45)" stroke-width="1.6"/>
<rect x="75" y="400.0" width="225" height="480.0" fill="url(#gL2)" clip-path="url(#cpl2)"/>
<rect x="75" y="400.0" width="225" height="480.0" fill="url(#pat_clay)" clip-path="url(#cpl2)" opacity="0.86"/>
<rect x="75" y="400.0" width="15.8" height="480.0" fill="url(#gEdge)" clip-path="url(#cpl2)"/>
<path d="M75.00,400.00 C77.62,400.24 82.25,401.04 87.50,401.12 C92.75,401.20 94.75,400.57 100.00,400.36 C105.25,400.15 107.25,400.12 112.50,400.12 C117.75,400.12 119.75,400.27 125.00,400.38 C130.25,400.49 132.25,400.64 137.50,400.64 C142.75,400.64 144.75,400.62 150.00,400.37 C155.25,400.12 157.25,399.88 162.50,399.43 C167.75,398.98 169.75,398.65 175.00,398.25 C180.25,397.85 182.25,397.63 187.50,397.54 C192.75,397.45 194.75,397.52 200.00,397.83 C205.25,398.14 207.25,398.47 212.50,399.03 C217.75,399.59 219.75,399.99 225.00,400.50 C230.25,401.01 232.25,401.25 237.50,401.48 C242.75,401.71 244.75,401.69 250.00,401.60 C255.25,401.51 257.25,401.30 262.50,401.07 C267.75,400.84 269.75,400.65 275.00,400.51 C280.25,400.37 282.25,400.52 287.50,400.41 C292.75,400.30 297.38,400.09 300.00,400.00 L300.00,880.00 C297.38,879.88 292.75,879.78 287.50,879.41 C282.25,879.04 280.25,878.60 275.00,878.26 C269.75,877.92 267.75,877.78 262.50,877.77 C257.25,877.76 255.25,877.88 250.00,878.19 C244.75,878.50 242.75,878.81 237.50,879.26 C232.25,879.71 230.25,879.99 225.00,880.32 C219.75,880.65 217.75,880.76 212.50,880.85 C207.25,880.94 205.25,880.85 200.00,880.75 C194.75,880.65 192.75,880.48 187.50,880.39 C182.25,880.30 180.25,880.24 175.00,880.30 C169.75,880.36 167.75,880.47 162.50,880.68 C157.25,880.89 155.25,881.11 150.00,881.30 C144.75,881.49 142.75,881.62 137.50,881.59 C132.25,881.56 130.25,881.47 125.00,881.14 C119.75,880.81 117.75,880.51 112.50,880.00 C107.25,879.49 105.25,879.13 100.00,878.70 C94.75,878.27 92.75,877.67 87.50,877.94 C82.25,878.21 77.62,879.57 75.00,880.00 Z" fill="none" stroke="#77756C" stroke-width="0.9"/>
<polygon points="300,400.0 338,381.0 338,861.0 300,880.0" fill="url(#gR2)" stroke="#77756C" stroke-width="0.8" stroke-linejoin="round"/>
<polygon points="300,400.0 338,381.0 338,861.0 300,880.0" fill="url(#pat_clay)" stroke="none" opacity="0.44"/>
<line x1="300" y1="400.0" x2="300" y2="880.0" stroke="rgba(255,255,255,0.45)" stroke-width="1.6"/>
<rect x="75" y="880.0" width="225" height="450.0" fill="url(#gL3)" clip-path="url(#cpl3)"/>
<rect x="75" y="880.0" width="225" height="450.0" fill="url(#pat_silt)" clip-path="url(#cpl3)" opacity="0.86"/>
<rect x="75" y="880.0" width="15.8" height="450.0" fill="url(#gEdge)" clip-path="url(#cpl3)"/>
<path d="M75.00,880.00 C77.62,879.57 82.25,878.21 87.50,877.94 C92.75,877.67 94.75,878.27 100.00,878.70 C105.25,879.13 107.25,879.49 112.50,880.00 C117.75,880.51 119.75,880.81 125.00,881.14 C130.25,881.47 132.25,881.56 137.50,881.59 C142.75,881.62 144.75,881.49 150.00,881.30 C155.25,881.11 157.25,880.89 162.50,880.68 C167.75,880.47 169.75,880.36 175.00,880.30 C180.25,880.24 182.25,880.30 187.50,880.39 C192.75,880.48 194.75,880.65 200.00,880.75 C205.25,880.85 207.25,880.94 212.50,880.85 C217.75,880.76 219.75,880.65 225.00,880.32 C230.25,879.99 232.25,879.71 237.50,879.26 C242.75,878.81 244.75,878.50 250.00,878.19 C255.25,877.88 257.25,877.76 262.50,877.77 C267.75,877.78 269.75,877.92 275.00,878.26 C280.25,878.60 282.25,879.04 287.50,879.41 C292.75,879.78 297.38,879.88 300.00,880.00 L300.00,1330.00 C297.38,1330.00 292.75,1330.00 287.50,1330.00 C282.25,1330.00 280.25,1330.00 275.00,1330.00 C269.75,1330.00 267.75,1330.00 262.50,1330.00 C257.25,1330.00 255.25,1330.00 250.00,1330.00 C244.75,1330.00 242.75,1330.00 237.50,1330.00 C232.25,1330.00 230.25,1330.00 225.00,1330.00 C219.75,1330.00 217.75,1330.00 212.50,1330.00 C207.25,1330.00 205.25,1330.00 200.00,1330.00 C194.75,1330.00 192.75,1330.00 187.50,1330.00 C182.25,1330.00 180.25,1330.00 175.00,1330.00 C169.75,1330.00 167.75,1330.00 162.50,1330.00 C157.25,1330.00 155.25,1330.00 150.00,1330.00 C144.75,1330.00 142.75,1330.00 137.50,1330.00 C132.25,1330.00 130.25,1330.00 125.00,1330.00 C119.75,1330.00 117.75,1330.00 112.50,1330.00 C107.25,1330.00 105.25,1330.00 100.00,1330.00 C94.75,1330.00 92.75,1330.00 87.50,1330.00 C82.25,1330.00 77.62,1330.00 75.00,1330.00 Z" fill="none" stroke="#4F4F4F" stroke-width="0.9"/>
<polygon points="300,880.0 338,861.0 338,1311.0 300,1330.0" fill="url(#gR3)" stroke="#4F4F4F" stroke-width="0.8" stroke-linejoin="round"/>
<polygon points="300,880.0 338,861.0 338,1311.0 300,1330.0" fill="url(#pat_silt)" stroke="none" opacity="0.44"/>
<line x1="300" y1="880.0" x2="300" y2="1330.0" stroke="rgba(255,255,255,0.45)" stroke-width="1.6"/>
</g>
<line x1="75" y1="130.0" x2="75" y2="1330.0" stroke="#111" stroke-width="1.8"/>
<line x1="75" y1="1330.0" x2="300" y2="1330.0" stroke="#111" stroke-width="1.2"/>
<line x1="338" y1="111.0" x2="338" y2="1311.0" stroke="#333" stroke-width="1.0"/>
<line x1="300" y1="1330.0" x2="338" y2="1311.0" stroke="#333" stroke-width="1.0"/>
<line x1="65" y1="130.0" x2="65" y2="1330.0" stroke="#2A2A2A" stroke-width="1.5"/>
<line x1="57" y1="130.0" x2="65" y2="130.0" stroke="#2A2A2A" stroke-width="1.5"/>
<line x1="57" y1="310.0" x2="65" y2="310.0" stroke="#2A2A2A" stroke-width="1.5"/>
<text x="54" y="314.0" text-anchor="end" font-family="Arial, Helvetica, sans-serif" font-size="10" fill="#1A1A1A">3.75m</text>
<line x1="57" y1="400.0" x2="65" y2="400.0" stroke="#2A2A2A" stroke-width="1.5"/>
<text x="54" y="404.0" text-anchor="end" font-family="Arial, Helvetica, sans-serif" font-size="10" fill="#1A1A1A">5.62m</text>
<line x1="57" y1="880.0" x2="65" y2="880.0" stroke="#2A2A2A" stroke-width="1.5"/>
<text x="54" y="884.0" text-anchor="end" font-family="Arial, Helvetica, sans-serif" font-size="10" fill="#1A1A1A">15.62m</text>
<line x1="57" y1="1330.0" x2="65" y2="1330.0" stroke="#2A2A2A" stroke-width="1.5"/>
<text x="54" y="1334.0" text-anchor="end" font-family="Arial, Helvetica, sans-serif" font-size="10" fill="#1A1A1A">25.00m</text>
<text x="37" y="730.0" text-anchor="middle" font-family="Arial, Helvetica, sans-serif" font-size="9.5" fill="#444" transform="rotate(-90 37 730.0)">Profundidad (m)</text>
<rect x="358" y="130" width="584" height="302" fill="#FFFFFF" stroke="#555555" stroke-width="1.2"/>
<rect x="358" y="130" width="584" height="28" fill="#5A5A5A"/>
<line x1="420" y1="130" x2="420" y2="432" stroke="#888888" stroke-width="0.9"/>
<text x="389" y="149" text-anchor="middle" font-family="Arial, Helvetica, sans-serif" font-size="8.5" font-weight="bold" fill="#FFFFFF">ESTRATO</text>
<text x="681" y="149" text-anchor="middle" font-family="Arial, Helvetica, sans-serif" font-size="8.5" font-weight="bold" fill="#FFFFFF">DESCRIPCIÓN MACROSCÓPICA</text>
<line x1="358" y1="158" x2="942" y2="158" stroke="#BBBBBB" stroke-width="0.7"/>
<rect x="364" y="164" width="50" height="56" fill="#8A7369" stroke="#666666" stroke-width="0.8"/>
<rect x="364" y="164" width="50" height="56" fill="url(#pat_fill)" opacity="0.85"/>
<text x="428" y="192" font-family="Arial, Helvetica, sans-serif" font-size="8.5" fill="#111111">PISO DURO Y ENTRESUELO CON ARCILLA CAFE</text>
<line x1="358" y1="226" x2="942" y2="226" stroke="#BBBBBB" stroke-width="0.7"/>
<rect x="364" y="232" width="50" height="56" fill="#AB8866" stroke="#666666" stroke-width="0.8"/>
<rect x="364" y="232" width="50" height="56" fill="url(#pat_fill)" opacity="0.85"/>
<text x="428" y="260" font-family="Arial, Helvetica, sans-serif" font-size="8.5" fill="#111111">LLENO ANTROPICO CON ARCILLA CAFE Y CAPA VEGETAL</text>
<line x1="358" y1="294" x2="942" y2="294" stroke="#BBBBBB" stroke-width="0.7"/>
<rect x="364" y="300" width="50" height="56" fill="#F8F4E2" stroke="#666666" stroke-width="0.8"/>
<rect x="364" y="300" width="50" height="56" fill="url(#pat_clay)" opacity="0.85"/>
<text x="428" y="328" font-family="Arial, Helvetica, sans-serif" font-size="8.5" fill="#111111">DEPOSITO DE VERTIENTE LIMO ARCILLOSA</text>
<line x1="358" y1="362" x2="942" y2="362" stroke="#BBBBBB" stroke-width="0.7"/>
<rect x="364" y="368" width="50" height="56" fill="#A4A4A4" stroke="#666666" stroke-width="0.8"/>
<rect x="364" y="368" width="50" height="56" fill="url(#pat_silt)" opacity="0.85"/>
<text x="428" y="396" font-family="Arial, Helvetica, sans-serif" font-size="8.5" fill="#111111">LIMO ARENOSO COLOR CAFE Y GRIS</text>
<line x1="358" y1="432" x2="942" y2="432" stroke="#555555" stroke-width="1.0"/>
</svg>